<svg xmlns="http://www.w3.org/2000/svg" viewBox="0 0 3000 3000">
  <path fill="#8bc2ff" d="M2186.58,774.7a173.66,173.66,0,0,1,241.88,42.49h0a173.66,173.66,0,0,1-42.5,241.88l-28.86,20.24-116.94-48.41L2305,989.68a66.21,66.21,0,0,0,20.33-91.4h0a66.2,66.2,0,0,0-91.4-20.34L2090.68,969l-114-47.18Z"/>
  <path fill="#c5dff2" d="M2428.46,817.19h0a173.66,173.66,0,0,0-241.88-42.49L1976.7,921.85l.74.3,177.17-124.21a173.64,173.64,0,0,1,241.87,42.49h0c52.2,74.44,37.78,175.6-30.76,232.83l20.24-14.19A173.66,173.66,0,0,0,2428.46,817.19Z"/>
  <path fill="#1552b8" d="M2357.1,1094.49a15.06,15.06,0,0,1-5.81-1.16l-116.93-48.4a15.17,15.17,0,0,1-2.34-26.83l64.81-41.23a51,51,0,0,0-54.78-86.12l-143.22,91.09a15.14,15.14,0,0,1-13.95,1.21l-114-47.18a15.18,15.18,0,0,1-2.91-26.45l209.88-147.15a188.82,188.82,0,0,1,263,46.21c59.78,85.26,39,203.25-46.21,263l-28.86,20.24A15.14,15.14,0,0,1,2357.1,1094.49Zm-84.16-66.44,82.27,34,22-15.46c71.54-50.16,88.94-149.19,38.78-220.73a158.47,158.47,0,0,0-220.74-38.78h0L2008.06,918.4,2089.2,952l136.56-86.86a81.39,81.39,0,1,1,87.36,137.36ZM2186.58,774.7h0Z"/>
  <path fill="#8bc2ff" d="M1764.17,542.22h0a173.66,173.66,0,0,1,201.15,140.89l44.47,252.44L1899,889.67,1862,724a66.21,66.21,0,0,0-79-50.21h0a66.22,66.22,0,0,0-50.21,79l16.71,75-120.09-49.71-6.11-34.72A173.66,173.66,0,0,1,1764.17,542.22Z"/>
  <path fill="#c5dff2" d="M1764.17,542.22h0a173.66,173.66,0,0,1,201.15,140.89l44.47,252.44-.74-.31-37.54-213.09a173.65,173.65,0,0,0-201.15-140.89h0c-89.54,15.77-150.83,97.53-142.79,186.46l-4.29-24.35A173.66,173.66,0,0,1,1764.17,542.22Z"/>
  <path fill="#8bc2ff" d="M2684.31,1478l55.09-133.08a99.2,99.2,0,0,0-53.72-129.59l54.24,22.45a99.18,99.18,0,0,1,53.71,129.59l-55.08,133.08A99.2,99.2,0,0,1,2609,1554.15l-54.24-22.45A99.2,99.2,0,0,0,2684.31,1478Z"/>
  <polygon fill="#8bc2ff" points="1086.23 923.85 2631.35 1563.42 2648.47 1522.04 1056.12 862.92 1086.23 923.85"/>
  <path fill="#1552b8" d="M2646.75,1576.87a113.57,113.57,0,0,1-43.59-8.7L1109.81,950h0a114.51,114.51,0,0,1-61.94-149.41L1103,667.54a114.36,114.36,0,0,1,149.42-61.94l1493.35,618.15a114.36,114.36,0,0,1,61.93,149.41l-55.09,133.08A114.54,114.54,0,0,1,2646.75,1576.87ZM1121.42,922l1493.35,618.15a84.1,84.1,0,0,0,109.75-45.5l55.09-133.08a84,84,0,0,0-45.49-109.76L1240.77,633.65A84,84,0,0,0,1131,679.15l-55.09,133.08A84.12,84.12,0,0,0,1121.42,922Z"/>
  <path fill="#8bc2ff" d="M871.69,2043.28l1004.8,363.56c129,53.4,292.33-15.55,345.72-144.54l326.91-732.92,29.54,12.23L2243.17,2352.1c-53.39,129-201.24,190.28-330.24,136.89L947.3,2089.28c-86.94-36-143-114.9-154.09-202C820.05,1934.11,817.94,2021,871.69,2043.28Z"/>
  <path fill="#1552b8" d="M2009.26,2523.39A266.26,266.26,0,0,1,1907.13,2503L941.5,2103.31C805,2046.8,739.88,1889.75,796.39,1753.24l50.11-121a15.18,15.18,0,0,1,28,11.61l-50.1,121c-50.11,121.05,7.61,260.3,128.66,310.41L1918.74,2475c121,50.08,260.3-7.62,310.41-128.67l329.68-796.47L1154.13,968.38l-115,277.79a15.18,15.18,0,0,1-28.06-11.61l120.8-291.82a15.17,15.17,0,0,1,19.83-8.22l1432.75,593.07a15.19,15.19,0,0,1,8.22,19.84l-333.17,804.73C2269.21,2444.84,2146.81,2523.39,2009.26,2523.39Z"/>
</svg>
