<svg width="705.501" height="72.401" viewBox="0 0 705.501 72.401" xmlns="http://www.w3.org/2000/svg"><g id="svgGroup" stroke-linecap="round" fill-rule="evenodd" font-size="9pt" stroke="#000" stroke-width="0.25mm" fill="#000" style="stroke:#000;stroke-width:0.25mm;fill:#000"><path d="M 328.3 5.701 L 324.8 13.601 Q 320.6 11.301 316.25 9.801 A 27.36 27.36 0 0 0 310.151 8.48 A 34.225 34.225 0 0 0 306.6 8.301 A 20.13 20.13 0 0 0 299.113 9.671 A 18.919 18.919 0 0 0 295.4 11.651 A 20.295 20.295 0 0 0 290.076 17.068 A 27.457 27.457 0 0 0 287.65 21.501 A 31.614 31.614 0 0 0 285.604 28.231 Q 285.001 31.363 284.85 34.955 A 58.311 58.311 0 0 0 284.8 37.401 Q 284.8 44.709 286.768 50.164 A 26.036 26.036 0 0 0 287.4 51.751 A 24.18 24.18 0 0 0 290.332 56.797 A 19.102 19.102 0 0 0 294.6 60.901 A 17.93 17.93 0 0 0 304.409 64.086 A 21.993 21.993 0 0 0 305.2 64.101 A 22.762 22.762 0 0 0 310.797 63.437 A 18.835 18.835 0 0 0 315.15 61.751 A 40.361 40.361 0 0 0 318.152 59.967 Q 320.438 58.463 322 56.901 L 322 41.601 L 307.5 41.601 L 307.5 34.101 L 331 34.101 L 331 71.201 L 322.6 71.201 L 322.6 64.201 A 35.883 35.883 0 0 1 318.222 67.492 A 47.354 47.354 0 0 1 314.1 69.851 A 23.594 23.594 0 0 1 304.694 72.35 A 28.131 28.131 0 0 1 303 72.401 A 26.572 26.572 0 0 1 293.687 70.801 A 24.511 24.511 0 0 1 288.6 68.201 Q 282.3 64.001 278.7 56.251 A 37.529 37.529 0 0 1 275.792 46.68 A 51.837 51.837 0 0 1 275.1 38.001 A 56.301 56.301 0 0 1 275.935 28.083 A 42.572 42.572 0 0 1 278.9 18.251 A 32.73 32.73 0 0 1 284.684 9.303 A 29.455 29.455 0 0 1 289.85 4.851 Q 297 0.001 307.1 0.001 Q 313.6 0.001 318.7 1.601 Q 323.8 3.201 328.3 5.701 Z M 9.5 71.201 L 0 71.201 L 0 1.201 L 9.5 1.201 L 9.5 31.101 L 44 31.101 L 44 1.201 L 53.5 1.201 L 53.5 71.201 L 44 71.201 L 44 39.301 L 9.5 39.301 L 9.5 71.201 Z M 81 71.201 L 71.5 71.201 L 71.5 1.201 L 81 1.201 L 81 31.101 L 115.5 31.101 L 115.5 1.201 L 125 1.201 L 125 71.201 L 115.5 71.201 L 115.5 39.301 L 81 39.301 L 81 71.201 Z M 383.5 71.201 L 374 71.201 L 374 1.201 L 415.5 1.201 L 415.5 9.401 L 383.5 9.401 L 383.5 30.801 L 410.2 30.801 L 410.2 38.601 L 383.5 38.601 L 383.5 71.201 Z M 590.8 68.701 L 582.1 72.201 L 574.3 52.201 L 541.9 52.201 L 534.1 72.001 L 526 68.701 L 553.4 1.201 L 563.8 1.201 L 590.8 68.701 Z M 450.5 71.201 L 441 71.201 L 441 9.601 L 419.5 9.601 L 419.5 1.201 L 472 1.201 L 472 9.601 L 450.5 9.601 L 450.5 71.201 Z M 164.408 71.643 A 36.51 36.51 0 0 0 172 72.401 A 38.35 38.35 0 0 0 177.162 72.064 A 30.074 30.074 0 0 0 185.9 69.551 Q 192 66.701 196.3 61.751 Q 200.6 56.801 202.85 50.201 Q 205.1 43.601 205.1 36.101 A 48.215 48.215 0 0 0 205.021 33.323 A 41.439 41.439 0 0 0 202.85 22.101 Q 200.6 15.601 196.3 10.601 Q 192 5.601 185.85 2.801 A 29.925 29.925 0 0 0 179.958 0.838 A 36.42 36.42 0 0 0 172 0.001 A 39.35 39.35 0 0 0 165.772 0.476 A 29.661 29.661 0 0 0 154.3 4.751 Q 146.9 9.501 142.95 17.651 A 37.989 37.989 0 0 0 140.115 25.764 A 46.182 46.182 0 0 0 139 36.101 A 48.913 48.913 0 0 0 139.035 37.961 A 42.769 42.769 0 0 0 141.25 50.201 A 39.376 39.376 0 0 0 141.689 51.423 A 34.353 34.353 0 0 0 147.75 61.751 Q 152 66.701 158.1 69.551 A 29.142 29.142 0 0 0 164.408 71.643 Z M 610.3 71.201 L 600.8 71.201 L 600.8 1.401 Q 604.9 0.901 609.85 0.651 A 200.806 200.806 0 0 1 618.78 0.404 A 221.966 221.966 0 0 1 620.1 0.401 Q 627.67 0.401 633.272 2.483 A 26.011 26.011 0 0 1 634.9 3.151 A 24.606 24.606 0 0 1 639.982 6.179 A 19.374 19.374 0 0 1 644.2 10.701 Q 647.4 15.501 647.4 21.701 A 25.258 25.258 0 0 1 646.692 27.823 A 19.268 19.268 0 0 1 643.7 34.401 A 22.312 22.312 0 0 1 636.149 41.03 A 28.065 28.065 0 0 1 633.4 42.351 A 34.774 34.774 0 0 1 625.311 44.574 A 47.194 47.194 0 0 1 618.1 45.101 Q 613.9 45.101 610.3 44.801 L 610.3 71.201 Z M 668.4 71.201 L 658.9 71.201 L 658.9 1.401 Q 663 0.901 667.95 0.651 A 200.806 200.806 0 0 1 676.88 0.404 A 221.966 221.966 0 0 1 678.2 0.401 Q 685.77 0.401 691.372 2.483 A 26.011 26.011 0 0 1 693 3.151 A 24.606 24.606 0 0 1 698.082 6.179 A 19.374 19.374 0 0 1 702.3 10.701 Q 705.5 15.501 705.5 21.701 A 25.258 25.258 0 0 1 704.792 27.823 A 19.268 19.268 0 0 1 701.8 34.401 A 22.312 22.312 0 0 1 694.249 41.03 A 28.065 28.065 0 0 1 691.5 42.351 A 34.774 34.774 0 0 1 683.411 44.574 A 47.194 47.194 0 0 1 676.2 45.101 Q 672 45.101 668.4 44.801 L 668.4 71.201 Z M 172 64.201 A 26.517 26.517 0 0 0 177.948 63.566 A 19.316 19.316 0 0 0 184.9 60.501 A 22.47 22.47 0 0 0 192.225 51.63 A 27.252 27.252 0 0 0 192.75 50.451 A 34.108 34.108 0 0 0 195.072 41.522 A 43.503 43.503 0 0 0 195.4 36.101 Q 195.4 30.701 193.8 25.701 A 29.735 29.735 0 0 0 189.66 17.374 A 28.121 28.121 0 0 0 189.2 16.751 Q 186.2 12.801 181.85 10.501 A 19.921 19.921 0 0 0 174.433 8.319 A 24.578 24.578 0 0 0 172 8.201 A 24.086 24.086 0 0 0 165.508 9.041 A 19.545 19.545 0 0 0 159.45 11.901 A 23.148 23.148 0 0 0 151.849 21.027 A 27.785 27.785 0 0 0 151.45 21.901 A 32.793 32.793 0 0 0 148.996 31.088 A 41.257 41.257 0 0 0 148.7 36.101 Q 148.7 41.501 150.25 46.551 A 29.379 29.379 0 0 0 154.431 55.096 A 27.923 27.923 0 0 0 154.8 55.601 Q 157.8 59.601 162.15 61.901 A 19.921 19.921 0 0 0 169.567 64.082 A 24.578 24.578 0 0 0 172 64.201 Z M 356 71.201 L 346.5 71.201 L 346.5 1.201 L 356 1.201 L 356 71.201 Z M 610.3 8.801 L 610.3 36.701 Q 611.4 36.838 612.831 36.952 A 96.255 96.255 0 0 0 614.2 37.051 Q 616.5 37.201 619.3 37.201 A 31.831 31.831 0 0 0 624.68 36.775 Q 627.559 36.28 629.863 35.211 A 15.221 15.221 0 0 0 633.1 33.201 A 12.896 12.896 0 0 0 637.955 23.758 A 17.32 17.32 0 0 0 638 22.501 A 14.452 14.452 0 0 0 637.239 17.707 A 12.136 12.136 0 0 0 633.3 12.201 A 15.462 15.462 0 0 0 628.219 9.537 Q 625.993 8.827 623.3 8.56 A 34.58 34.58 0 0 0 619.9 8.401 A 131.125 131.125 0 0 0 616.642 8.44 A 109.939 109.939 0 0 0 614.8 8.501 A 91.274 91.274 0 0 0 611.917 8.665 A 75.041 75.041 0 0 0 610.3 8.801 Z M 668.4 8.801 L 668.4 36.701 Q 669.5 36.838 670.931 36.952 A 96.255 96.255 0 0 0 672.3 37.051 Q 674.6 37.201 677.4 37.201 A 31.831 31.831 0 0 0 682.78 36.775 Q 685.659 36.28 687.963 35.211 A 15.221 15.221 0 0 0 691.2 33.201 A 12.896 12.896 0 0 0 696.055 23.758 A 17.32 17.32 0 0 0 696.1 22.501 A 14.452 14.452 0 0 0 695.339 17.707 A 12.136 12.136 0 0 0 691.4 12.201 A 15.462 15.462 0 0 0 686.319 9.537 Q 684.093 8.827 681.4 8.56 A 34.58 34.58 0 0 0 678 8.401 A 131.125 131.125 0 0 0 674.742 8.44 A 109.939 109.939 0 0 0 672.9 8.501 A 91.274 91.274 0 0 0 670.017 8.665 A 75.041 75.041 0 0 0 668.4 8.801 Z M 558.1 10.601 L 544.9 44.201 L 571.2 44.201 L 558.1 10.601 Z M 257.1 41.001 L 223.1 41.001 L 223.1 32.801 L 257.1 32.801 L 257.1 41.001 Z M 514 41.001 L 480 41.001 L 480 32.801 L 514 32.801 L 514 41.001 Z" vector-effect="non-scaling-stroke"/></g></svg>